<svg aria-hidden="true" style="position: absolute; width: 0; height: 0; overflow: hidden;" version="1.1" xmlns="http://www.w3.org/2000/svg" xmlns:xlink="http://www.w3.org/1999/xlink">
<defs>
<symbol id="icon-reshot" viewBox="0 0 32 32">
<path d="M26.667 18c-0.004 3.312-2.688 5.996-6 6h-4.667c-0.736 0-1.333-0.597-1.333-1.333s0.597-1.333 1.333-1.333v0h4.667c1.841 0 3.333-1.492 3.333-3.333s-1.492-3.333-3.333-3.333v0h-10.781l1.724 1.724c0.251 0.243 0.407 0.583 0.407 0.959 0 0.736-0.597 1.333-1.333 1.333-0.376 0-0.716-0.156-0.959-0.407l-4-4c-0.242-0.241-0.392-0.575-0.392-0.944s0.15-0.703 0.392-0.944l4-4c0.241-0.241 0.575-0.39 0.943-0.39 0.737 0 1.334 0.597 1.334 1.334 0 0.369-0.15 0.703-0.391 0.944v0l-1.724 1.724h10.781c3.312 0.004 5.996 2.688 6 6v0z"></path>
</symbol>
<symbol id="icon-menu" viewBox="0 0 32 32">
<path d="M24.273 9.020h-16.546c-0.291 0-0.528 0.236-0.528 0.528s0.236 0.528 0.528 0.528v0h16.546c0.291 0 0.528-0.236 0.528-0.528s-0.236-0.528-0.528-0.528v0zM24.273 15.472h-16.546c-0.291 0-0.528 0.236-0.528 0.528s0.236 0.528 0.528 0.528v0h16.546c0.291 0 0.528-0.236 0.528-0.528s-0.236-0.528-0.528-0.528v0zM24.273 21.925h-16.546c-0.291 0-0.528 0.236-0.528 0.528s0.236 0.528 0.528 0.528h16.546c0.291 0 0.528-0.236 0.528-0.528s-0.236-0.528-0.528-0.528v0z"></path>
</symbol>
<symbol id="icon-logo" viewBox="0 0 35 32">
<path d="M4.53 13.305c-0.5 0.003-0.904 0.407-0.907 0.907v1.68c-0.039 0.469-0.429 0.834-0.904 0.834s-0.865-0.366-0.904-0.831l-0-0.003v0.112c0-0.501-0.406-0.907-0.907-0.907s-0.907 0.406-0.907 0.907v0 14.901c0 0.501 0.406 0.907 0.907 0.907s0.907-0.406 0.907-0.907v0-4.726c-0.002-0.020-0.002-0.043-0.002-0.066 0-0.501 0.406-0.907 0.907-0.907s0.907 0.406 0.907 0.907c0 0.023-0.001 0.046-0.003 0.069l0-0.003v2.912c0 0.501 0.406 0.907 0.907 0.907s0.907-0.406 0.907-0.907v0-14.89c-0.006-0.496-0.41-0.896-0.907-0.896-0 0-0 0-0.001 0h0zM2.722 24.005c-0.002 0-0.005 0-0.007 0-0.497 0-0.9-0.403-0.9-0.9 0-0.002 0-0.005 0-0.007v0-4.088c-0.002-0.020-0.002-0.043-0.002-0.066 0-0.501 0.406-0.907 0.907-0.907s0.907 0.406 0.907 0.907c0 0.023-0.001 0.046-0.003 0.069l0-0.003v4.088c0 0.002 0 0.004 0 0.006 0 0.497-0.403 0.901-0.901 0.901-0 0-0 0-0.001 0h0z"></path>
<path d="M11.776 5.801c-0.498 0.001-0.901 0.404-0.901 0.901v11.888c0 0.501-0.406 0.907-0.907 0.907s-0.907-0.406-0.907-0.907v0-9.109c0.002-0.020 0.002-0.043 0.002-0.066 0-0.501-0.406-0.907-0.907-0.907s-0.907 0.406-0.907 0.907c0 0.023 0.001 0.046 0.003 0.069l-0-0.003v14.9c-0.002 0.022-0.003 0.047-0.003 0.072 0 0.501 0.406 0.907 0.907 0.907 0.132 0 0.257-0.028 0.37-0.079l-0.006 0.002c0.323-0.144 0.544-0.462 0.544-0.832 0-0.025-0.001-0.049-0.003-0.074l0 0.003v-2.716c0-0.501 0.406-0.907 0.907-0.907s0.907 0.406 0.907 0.907v0-0.084c0.041 0.467 0.43 0.831 0.904 0.831s0.863-0.364 0.904-0.828l0-0.003v-14.907c-0.015-0.486-0.413-0.874-0.901-0.874-0.002 0-0.004 0-0.006 0h0z"></path>
<path d="M19.022 0c-0.501 0-0.907 0.406-0.907 0.907v2.509c0 0.501-0.406 0.907-0.907 0.907s-0.907-0.406-0.907-0.907v0-0.47c-0.041-0.467-0.43-0.831-0.904-0.831s-0.863 0.364-0.904 0.828l-0 0.003v14.9c-0.002 0.021-0.003 0.045-0.003 0.070 0 0.37 0.221 0.688 0.537 0.83l0.006 0.002c0.107 0.048 0.232 0.076 0.363 0.076 0.501 0 0.908-0.406 0.908-0.908 0-0.025-0.001-0.049-0.003-0.073l0 0.003v-11.333c0-0.501 0.406-0.907 0.907-0.907s0.907 0.406 0.907 0.907v0 9.295c0 0.501 0.406 0.907 0.907 0.907s0.907-0.406 0.907-0.907v0-14.899c-0.003-0.5-0.407-0.904-0.906-0.908h-0z"></path>
<path d="M33.514 14.979c-0.498 0.003-0.901 0.408-0.901 0.907 0 0 0 0 0 0v0 1.294c0 0.501-0.406 0.907-0.907 0.907s-0.907-0.406-0.907-0.907v0-3.645c0-0.501-0.406-0.907-0.907-0.907s-0.907 0.406-0.907 0.907v0 7.788c-0.035 0.472-0.427 0.841-0.904 0.841s-0.869-0.369-0.904-0.838l-0-0.003v-11.915c0-0.501-0.406-0.907-0.907-0.907s-0.907 0.406-0.907 0.907v0 8.315c0.002 0.022 0.003 0.047 0.003 0.073 0 0.5-0.405 0.906-0.906 0.906-0 0-0.001 0-0.001 0h0c-0 0-0 0-0.001 0-0.501 0-0.907-0.406-0.907-0.907 0-0.025 0.001-0.050 0.003-0.075l-0 0.003v-11.854c0-0.501-0.406-0.907-0.907-0.907s-0.907 0.406-0.907 0.907v0 14.901c0 0.501 0.406 0.907 0.907 0.907s0.907-0.406 0.907-0.907v0 0.050c0.039-0.469 0.429-0.834 0.904-0.834s0.865 0.366 0.904 0.831l0 0.003v3.489c0 0.501 0.406 0.907 0.907 0.907s0.907-0.406 0.907-0.907v0 0.112c-0.002-0.024-0.003-0.051-0.003-0.079 0-0.501 0.406-0.908 0.908-0.908s0.908 0.406 0.908 0.908c0 0.028-0.001 0.055-0.004 0.083l0-0.003v4.015c0 0.501 0.406 0.907 0.907 0.907s0.907-0.406 0.907-0.907v0-8.154c0-0.501 0.406-0.907 0.907-0.907s0.907 0.406 0.907 0.907v0 10.505c-0.002 0.020-0.002 0.043-0.002 0.066 0 0.501 0.406 0.907 0.907 0.907s0.907-0.406 0.907-0.907c0-0.023-0.001-0.046-0.003-0.069l0 0.003v-14.906c-0.003-0.498-0.408-0.901-0.907-0.901h-0z"></path>
</symbol>
<symbol id="icon-ant-design_cloud-upload-outlined-1" viewBox="0 0 40 32">
<path d="M20.425 14.4c-0.065-0.082-0.165-0.134-0.277-0.134s-0.212 0.052-0.277 0.134l-0.001 0.001-4.926 6.232c-0.046 0.059-0.073 0.133-0.073 0.215 0 0.194 0.157 0.351 0.35 0.352h3.25v10.662c0 0.193 0.159 0.352 0.352 0.352h2.639c0.194-0.001 0.351-0.158 0.352-0.352v-10.657h3.259c0 0 0 0 0 0 0.194 0 0.351-0.157 0.351-0.351 0-0.082-0.028-0.158-0.076-0.218l0.001 0.001-4.926-6.236z"></path>
<path d="M33.316 10.34c-2.015-5.313-7.147-9.090-13.159-9.090-6.011 0-11.144 3.774-13.159 9.086-3.801 1.028-6.552 4.446-6.553 8.506v0c0 0.001 0 0.002 0 0.002 0 4.856 3.936 8.793 8.792 8.794h1.764c0.194-0.001 0.351-0.158 0.352-0.352v-2.638c-0.001-0.194-0.158-0.351-0.352-0.352h-1.764c-0.003 0-0.007 0-0.011 0-1.532 0-2.916-0.636-3.902-1.658l-0.002-0.002c-0.951-0.98-1.538-2.319-1.538-3.795 0-0.066 0.001-0.132 0.003-0.198l-0 0.009c0.040-1.161 0.436-2.252 1.153-3.172 0.726-0.919 1.722-1.596 2.869-1.912l0.039-0.009 1.666-0.436 0.612-1.609c0.797-2.052 2.136-3.748 3.842-4.96l0.033-0.022c1.707-1.216 3.835-1.944 6.133-1.944 0.008 0 0.016 0 0.024 0h-0.001c2.221 0 4.35 0.672 6.158 1.944 1.739 1.235 3.078 2.93 3.85 4.909l0.025 0.074 0.606 1.605 1.663 0.44c2.35 0.65 4.047 2.767 4.051 5.282v0c0 0.004 0 0.010 0 0.015 0 1.502-0.61 2.861-1.596 3.843l-0 0c-0.981 0.986-2.339 1.596-3.839 1.596-0.005 0-0.010 0-0.015-0h-1.763c-0.194 0.001-0.351 0.158-0.352 0.352v2.638c0 0.194 0.158 0.352 0.352 0.352h1.764c4.856-0.001 8.792-3.938 8.792-8.794 0-0.001 0-0.002 0-0.003v0c0-0 0-0 0-0 0-4.054-2.743-7.468-6.475-8.487l-0.062-0.014z"></path>
</symbol>
<symbol id="icon-cross" viewBox="0 0 32 32">
<path d="M31.708 25.708c-0-0-0-0-0-0l-9.708-9.708 9.708-9.708c0-0 0-0 0-0 0.105-0.105 0.18-0.227 0.229-0.357 0.133-0.356 0.057-0.771-0.229-1.057l-4.586-4.586c-0.286-0.286-0.702-0.361-1.057-0.229-0.13 0.048-0.252 0.124-0.357 0.228 0 0-0 0-0 0l-9.708 9.708-9.708-9.708c-0-0-0-0-0-0-0.105-0.104-0.227-0.18-0.357-0.228-0.356-0.133-0.771-0.057-1.057 0.229l-4.586 4.586c-0.286 0.286-0.361 0.702-0.229 1.057 0.049 0.13 0.124 0.252 0.229 0.357 0 0 0 0 0 0l9.708 9.708-9.708 9.708c-0 0-0 0-0 0-0.104 0.105-0.18 0.227-0.229 0.357-0.133 0.355-0.057 0.771 0.229 1.057l4.586 4.586c0.286 0.286 0.702 0.361 1.057 0.229 0.13-0.049 0.252-0.124 0.357-0.229 0-0 0-0 0-0l9.708-9.708 9.708 9.708c0 0 0 0 0 0 0.105 0.105 0.227 0.18 0.357 0.229 0.356 0.133 0.771 0.057 1.057-0.229l4.586-4.586c0.286-0.286 0.362-0.702 0.229-1.057-0.049-0.13-0.124-0.252-0.229-0.357z"></path>
</symbol>
</defs>
</svg>
